<?xml version="1.0" standalone="no"?>
<!DOCTYPE svg PUBLIC "-//W3C//DTD SVG 20010904//EN"
 "http://www.w3.org/TR/2001/REC-SVG-20010904/DTD/svg10.dtd">
<svg version="1.0" xmlns="http://www.w3.org/2000/svg"
 width="834.000000pt" height="249.000000pt" viewBox="0 0 834.000000 249.000000"
 preserveAspectRatio="xMidYMid meet">
<metadata>
Created by potrace 1.16, written by Peter Selinger 2001-2019
</metadata>
<g transform="translate(0.000000,249.000000) scale(0.100000,-0.100000)"
fill="#000000" stroke="none">
<path d="M384 1960 c-33 -16 -71 -41 -84 -55 l-25 -26 28 10 c51 20 57 15 51
-32 -5 -34 -2 -47 15 -67 l21 -25 -6 30 c-3 19 2 44 15 69 l20 39 -26 -24
c-24 -22 -25 -22 -15 -3 14 27 51 51 88 59 24 4 23 3 -6 -8 -32 -13 -35 -17
-32 -48 5 -45 8 -46 36 -20 13 12 45 30 72 41 l49 19 -40 1 c-31 1 -35 3 -20
9 16 7 8 11 -35 18 -50 10 -52 11 -17 12 21 0 65 -8 98 -19 34 -12 63 -19 66
-17 10 11 -123 67 -157 67 -21 0 -63 -13 -96 -30z"/>
<path d="M727 1960 c-14 -11 -29 -30 -33 -42 -6 -21 -7 -21 -20 -3 -13 17 -14
16 -14 -19 0 -43 18 -82 52 -112 40 -37 71 -48 153 -54 l80 -7 -79 -1 c-57 -2
-77 -5 -69 -13 5 -5 27 -11 47 -12 38 -2 47 -11 20 -21 -30 -12 -2 -26 53 -26
73 0 142 37 189 102 20 26 33 52 30 57 -4 5 -2 12 4 16 5 3 10 11 10 17 0 6
-20 -8 -44 -30 -24 -22 -58 -47 -74 -56 -50 -26 -51 -18 -2 10 25 14 65 45 90
69 l45 44 0 -52 c0 -53 19 -92 57 -116 12 -8 10 0 -8 32 -38 67 -29 124 29
186 21 22 25 30 12 24 -11 -6 -26 -9 -33 -7 -7 1 -8 0 -2 -3 11 -5 -37 -56
-56 -59 -6 -1 -33 -17 -60 -37 -50 -36 -127 -77 -141 -77 -4 1 15 13 43 28 62
32 205 134 199 141 -3 2 -42 -18 -87 -46 -90 -55 -163 -93 -175 -93 -4 0 24
18 62 39 98 53 206 118 219 132 22 22 -38 -2 -145 -61 -103 -56 -108 -58 -150
-49 -24 6 -54 17 -67 25 -12 8 -27 12 -32 9 -18 -11 -11 -35 13 -45 16 -7 18
-9 5 -9 -10 -1 -32 12 -50 28 -27 24 -33 36 -32 70 2 47 -3 49 -39 21z"/>
<path d="M1535 1969 c-5 -7 -4 -10 2 -6 5 3 45 -15 89 -40 43 -25 111 -63 149
-84 39 -21 66 -39 62 -39 -13 0 -86 38 -175 93 -45 27 -85 48 -87 45 -4 -4 83
-70 181 -136 11 -7 3 -5 -16 4 -19 9 -51 30 -71 45 -53 42 -59 36 -14 -12 45
-46 91 -76 144 -95 22 -8 28 -13 16 -13 -22 -1 -102 44 -152 85 l-32 26 4 -24
c7 -36 56 -99 102 -132 44 -31 118 -44 170 -31 26 6 26 8 10 19 -24 18 -22 21
19 23 20 1 42 7 47 12 8 8 -12 11 -69 13 l-79 1 75 7 c41 3 91 13 110 22 67
30 120 109 120 177 l-1 26 -17 -27 c-20 -33 -28 -35 -37 -8 -6 20 -51 60 -66
60 -5 0 -9 -17 -9 -39 0 -23 -8 -48 -20 -64 -23 -29 -78 -51 -112 -44 -20 4
-20 4 4 6 52 2 76 17 71 44 l-5 25 -41 -24 c-23 -13 -51 -24 -62 -24 -17 0
-18 -2 -5 -11 41 -29 -45 9 -141 62 -117 64 -153 77 -164 58z"/>
<path d="M2247 1961 c-37 -10 -72 -22 -79 -29 -7 -7 3 -6 28 2 41 14 152 30
121 18 -15 -6 -11 -11 23 -26 22 -10 48 -29 57 -42 9 -14 25 -30 35 -35 19
-10 19 -8 13 23 l-7 33 37 -43 c31 -35 81 -72 98 -72 2 0 -9 27 -24 59 -30 63
-63 93 -130 116 -53 19 -87 18 -172 -4z"/>
<path d="M1303 1918 c-31 -35 -43 -63 -43 -103 0 -40 12 -68 43 -102 l20 -23
-35 0 c-32 0 -37 -4 -43 -29 -7 -35 -23 -49 -94 -87 -81 -43 -148 -116 -188
-202 -28 -60 -40 -76 -68 -88 -41 -17 -128 -18 -157 -3 -23 12 -48 66 -48 104
0 14 -4 25 -9 25 -17 0 -51 -52 -52 -79 l-1 -26 -10 28 c-7 21 -6 40 5 75 9
26 14 48 12 51 -3 2 -16 -4 -29 -13 -14 -9 -27 -16 -28 -16 -2 0 -1 27 0 60 2
33 0 60 -4 60 -21 0 -76 -49 -92 -82 -16 -36 -32 -49 -32 -28 0 6 -15 19 -32
30 -66 40 -177 19 -222 -43 -27 -37 -29 -131 -3 -170 33 -51 107 -24 107 40 0
34 -16 36 -43 7 -29 -31 -56 -27 -58 8 -5 92 46 141 121 119 27 -8 52 -31 102
-94 99 -124 202 -196 305 -213 30 -4 52 -1 88 15 27 12 46 24 42 27 -3 3 -19
-2 -36 -10 -38 -20 -91 -20 -138 -1 -22 9 -88 67 -160 140 -68 69 -137 132
-154 140 -16 9 -29 18 -29 21 0 21 97 -57 190 -153 113 -117 166 -153 225
-153 33 0 108 31 119 49 9 14 6 14 -40 -5 -98 -41 -238 37 -283 159 -6 16 -10
52 -10 80 2 52 2 52 9 -14 10 -98 60 -167 150 -208 56 -26 93 -26 148 -1 23
11 40 14 36 8 -4 -7 -3 -8 5 -4 6 4 9 11 6 16 -3 5 -1 11 5 15 6 4 8 10 5 15
-3 4 2 13 10 20 13 10 15 9 15 -12 0 -13 -6 -30 -12 -37 -7 -8 -8 -11 -2 -8 6
4 16 -4 22 -17 8 -19 6 -27 -11 -47 -12 -14 -19 -20 -14 -15 20 26 2 22 -38
-8 -27 -21 -67 -39 -101 -47 -113 -25 -269 25 -360 117 -40 39 -64 54 -64 39
0 -13 30 -62 44 -74 9 -7 13 -17 11 -22 -3 -4 8 -23 25 -42 26 -30 28 -36 15
-47 -9 -7 -15 -29 -15 -51 0 -44 -1 -43 36 -29 21 8 31 7 46 -6 17 -16 25 -16
142 8 111 23 226 62 215 72 -2 3 -31 -5 -64 -16 -40 -13 -103 -22 -190 -27
-71 -4 -139 -11 -150 -15 -12 -5 -11 -2 5 8 17 10 52 15 110 16 113 0 205 16
262 44 27 12 43 17 37 9 -6 -7 -7 -13 -2 -13 5 0 9 -10 10 -22 1 -13 7 -58 14
-102 10 -65 9 -80 -2 -87 -8 -5 -54 -9 -103 -9 -70 0 -87 -3 -78 -12 22 -22
12 -26 -31 -10 -55 20 -101 10 -92 -18 5 -16 2 -20 -19 -20 -39 0 -39 -15 -1
-36 19 -10 35 -21 35 -25 0 -3 -11 -16 -25 -29 -33 -31 -27 -34 19 -10 21 10
64 24 95 30 48 9 206 78 198 86 -2 2 -32 -6 -67 -17 -70 -22 -254 -38 -262
-23 -3 5 39 10 96 11 55 1 115 6 131 11 22 6 2 8 -70 6 l-100 -3 90 9 c50 4
114 17 143 29 56 22 73 20 20 -3 -18 -8 -27 -15 -20 -15 7 -1 27 6 44 15 33
17 33 15 -13 -48 -39 -55 -53 -119 -35 -163 19 -44 57 -61 98 -44 15 6 28 15
28 20 0 12 -17 11 -25 -1 -3 -5 -17 -10 -30 -10 -34 0 -59 41 -51 83 7 36 56
141 62 134 3 -3 -4 -20 -15 -38 -50 -86 -50 -169 0 -169 17 0 19 3 10 14 -13
15 -4 47 25 91 l16 25 48 -68 c26 -37 77 -95 113 -128 68 -64 207 -161 243
-170 42 -11 242 130 322 225 21 25 52 66 67 90 l29 43 23 -26 c13 -15 26 -38
29 -52 7 -27 -12 -58 -31 -50 -7 2 -18 -7 -24 -20 -9 -21 -8 -28 14 -49 13
-14 31 -25 40 -25 25 0 85 28 85 40 0 7 -6 8 -19 0 -29 -15 -84 -12 -107 6
-18 15 -18 15 3 5 95 -47 187 49 154 160 -11 38 -34 69 -51 69 -5 0 0 -19 10
-42 28 -61 26 -110 -6 -147 -21 -25 -34 -31 -64 -31 -21 0 -41 4 -44 9 -4 5
11 7 34 4 97 -13 118 97 40 212 -15 22 -27 47 -27 56 0 15 3 15 36 1 20 -8 56
-21 81 -28 l45 -14 -45 5 -45 5 50 -16 c28 -8 94 -16 148 -17 76 -2 90 -4 65
-11 -40 -10 -196 7 -258 29 -24 8 -45 14 -47 12 -9 -10 129 -71 186 -83 35 -8
81 -23 103 -34 44 -23 49 -14 13 20 l-26 24 36 18 c43 23 44 34 4 42 -25 5
-29 9 -20 19 6 8 8 17 4 20 -12 13 -84 7 -114 -9 -30 -15 -30 -15 -19 5 13 24
10 25 -90 22 -92 -3 -106 9 -91 78 6 28 11 68 11 86 0 19 5 35 11 35 5 0 8 4
4 10 -3 5 18 -2 48 -15 29 -14 109 -36 177 -50 116 -24 124 -24 142 -8 16 14
24 15 49 6 26 -10 30 -9 35 12 3 13 -2 37 -11 55 -16 31 -16 33 9 59 14 15 26
33 26 40 0 7 12 28 26 47 14 18 24 41 20 49 -4 11 -18 2 -56 -36 -132 -132
-346 -163 -469 -68 -13 10 -27 16 -31 14 -11 -7 -41 36 -34 47 3 5 25 -9 48
-30 54 -50 73 -60 135 -72 114 -22 261 30 349 124 54 57 67 97 36 114 -13 7
-34 -9 -98 -74 -59 -60 -99 -91 -146 -113 -40 -19 -56 -31 -43 -31 42 0 131
41 177 81 25 22 46 36 46 31 0 -18 -79 -74 -138 -98 -112 -46 -233 -26 -314
53 -30 29 -35 40 -28 58 5 14 5 26 -2 33 -6 6 11 -1 38 -14 61 -31 107 -27
178 17 27 17 43 23 36 14 -29 -34 -93 -59 -154 -59 -52 1 -57 -1 -40 -13 118
-86 316 40 318 203 1 29 4 50 9 47 10 -6 9 -51 -4 -98 -32 -121 -175 -218
-274 -185 -53 17 -56 4 -4 -20 93 -42 144 -18 293 134 112 114 163 156 188
156 7 -1 0 -8 -17 -17 -16 -8 -86 -71 -155 -139 -161 -157 -213 -184 -297
-149 -45 19 -56 12 -14 -9 42 -22 127 -20 181 5 70 32 148 97 213 179 68 86
99 110 142 110 70 -1 120 -92 81 -146 -14 -18 -15 -18 -44 10 -48 45 -74 6
-31 -48 45 -58 109 -9 109 84 0 94 -59 150 -160 150 -57 0 -120 -27 -120 -52
-1 -7 -10 4 -20 24 -21 38 -77 88 -100 88 -10 0 -11 -14 -7 -60 l7 -61 -22 16
c-38 26 -49 20 -32 -20 16 -40 18 -83 4 -105 -7 -11 -10 -7 -10 18 0 23 -8 41
-27 58 l-28 26 -7 -53 c-9 -71 -39 -99 -108 -99 -27 0 -67 7 -89 16 -34 13
-42 23 -56 63 -33 99 -127 203 -232 254 -40 19 -63 50 -63 84 0 13 -13 15 -77
12 -122 -4 -122 -4 -143 44 -25 54 -25 122 -1 170 22 43 21 45 -6 15z m218
-318 c202 -62 326 -237 294 -411 -6 -34 -4 -39 25 -60 l32 -24 -6 -85 c-8
-114 -28 -188 -78 -290 -34 -68 -61 -103 -133 -176 -86 -87 -232 -194 -265
-194 -8 0 -42 16 -75 36 -259 156 -404 387 -405 644 0 73 1 75 31 93 28 16 30
21 24 50 -25 106 1 200 76 282 126 137 309 188 480 135z"/>
<path d="M3351 1920 c-227 -60 -419 -226 -517 -447 -27 -61 -30 -95 -10 -112
12 -10 24 8 71 105 51 105 66 126 143 203 164 162 345 236 519 211 79 -11 149
-33 145 -46 -1 -5 -24 -16 -50 -25 -305 -105 -589 -365 -652 -599 -19 -70 -16
-179 7 -231 41 -93 116 -140 233 -147 251 -15 525 183 637 458 39 98 56 194
49 287 -4 74 -17 119 -62 219 -7 16 34 24 177 31 141 6 261 -7 346 -39 58 -21
62 -27 34 -45 -51 -32 -181 -156 -249 -237 -96 -115 -192 -262 -322 -491 -256
-451 -417 -635 -599 -689 -96 -28 -193 -16 -230 28 -12 14 -11 25 3 76 15 51
15 63 3 92 -8 19 -26 42 -40 51 -99 65 -212 -60 -162 -179 37 -89 119 -135
255 -142 206 -10 411 83 614 278 149 143 246 281 411 580 197 359 280 493 358
577 l40 44 30 -28 c54 -52 71 -99 70 -193 -1 -127 -41 -224 -136 -327 -51 -55
-116 -94 -159 -95 -18 0 -67 3 -108 7 -68 7 -77 6 -94 -13 -25 -29 -15 -67 23
-80 16 -6 55 -8 88 -5 50 5 61 2 77 -16 32 -35 31 -102 -5 -256 -39 -172 -42
-267 -9 -342 31 -72 77 -114 134 -120 74 -9 142 31 261 152 111 112 150 169
125 185 -23 15 -25 14 -70 -45 -84 -110 -225 -225 -273 -225 -23 0 -41 29 -40
63 1 18 15 92 33 166 54 232 41 323 -62 427 l-50 52 42 7 c66 11 195 81 259
141 76 70 116 133 137 214 19 73 10 141 -28 217 -21 42 -97 121 -148 154 l-25
16 30 16 c17 8 38 24 48 35 18 20 18 21 -3 32 -17 9 -30 6 -76 -21 l-56 -31
-71 20 c-168 49 -338 61 -513 38 l-122 -16 -63 30 c-116 54 -263 65 -398 30z
m450 -182 c65 -127 10 -367 -125 -545 -73 -97 -184 -194 -272 -239 -72 -37
-83 -39 -165 -39 -100 0 -127 13 -167 81 -20 34 -22 50 -19 126 3 78 7 95 44
170 82 163 226 299 422 398 88 45 241 100 254 93 4 -2 17 -22 28 -45z"/>
<path d="M372 1328 c-22 -22 -13 -46 39 -102 59 -65 144 -111 237 -128 82 -15
155 -1 219 44 27 18 51 33 55 33 3 0 10 4 15 9 5 6 2 6 -6 1 -11 -6 -13 -4 -8
8 8 21 -31 14 -52 -10 -14 -14 -12 -14 14 2 l30 18 -19 -21 c-11 -12 -43 -34
-73 -48 -48 -24 -62 -26 -136 -22 -59 3 -94 11 -127 28 -51 26 -110 71 -110
84 0 4 16 -6 35 -23 48 -42 104 -69 157 -77 l43 -6 -65 32 c-45 22 -88 55
-142 111 -43 43 -82 79 -86 79 -5 0 -13 -5 -20 -12z"/>
<path d="M6357 1050 c-24 -19 -87 -130 -87 -155 0 -6 -43 -64 -95 -128 -78
-95 -100 -117 -122 -117 -33 0 -82 -30 -109 -67 -91 -123 -91 -250 -1 -317 24
-18 43 -21 120 -21 80 0 100 4 152 28 109 51 165 125 165 220 0 38 -12 84 -40
160 -26 67 -40 122 -40 152 0 42 5 52 65 120 62 72 84 113 70 134 -10 18 -50
13 -78 -9z m-99 -420 c-3 -102 -7 -121 -31 -170 -31 -60 -96 -133 -139 -156
-15 -8 -46 -14 -68 -14 -33 0 -48 6 -72 30 -26 27 -30 36 -25 67 8 49 47 86
112 107 69 22 99 56 92 108 -5 34 1 44 61 119 78 97 76 99 70 -91z"/>
<path d="M7064 1052 c-31 -26 -61 -73 -83 -133 -14 -35 -51 -91 -108 -159 -77
-92 -93 -105 -126 -111 -48 -8 -109 -65 -144 -136 -21 -44 -25 -63 -21 -116 4
-74 29 -116 84 -142 56 -26 184 -17 256 18 95 47 168 143 168 222 0 11 -20 78
-45 149 -62 178 -61 191 20 278 65 70 83 104 71 133 -7 20 -46 19 -72 -3z
m-104 -499 c-17 -95 -83 -196 -156 -239 -104 -61 -210 4 -169 102 15 37 46 61
97 75 20 5 51 21 68 36 28 23 31 31 27 67 -3 38 1 47 62 124 l66 82 7 -97 c4
-54 3 -121 -2 -150z"/>
<path d="M7774 866 c-59 -19 -144 -69 -227 -135 -83 -66 -118 -109 -154 -187
-21 -46 -25 -67 -21 -123 3 -56 9 -75 32 -105 45 -60 82 -78 147 -74 72 5 142
49 211 132 50 59 51 60 99 57 37 -2 60 4 99 25 49 27 170 144 170 164 0 25
-41 6 -74 -35 -60 -73 -162 -133 -201 -119 -10 4 -5 19 21 60 51 79 84 174 84
240 0 48 -4 59 -29 85 -24 23 -38 29 -73 28 -24 0 -62 -6 -84 -13z m131 -50
c10 -15 15 -40 13 -62 -3 -35 -6 -39 -38 -45 -46 -10 -104 -74 -119 -134 -9
-37 -8 -52 4 -81 15 -35 14 -37 -15 -74 -90 -113 -210 -170 -255 -120 -53 59
46 278 199 439 96 100 177 129 211 77z"/>
<path d="M5112 701 c-125 -208 -141 -241 -148 -295 -13 -91 41 -166 119 -166
53 0 86 22 159 102 l57 63 1 -33 c0 -73 56 -132 124 -132 62 0 132 54 250 195
111 134 132 166 122 190 -9 24 -20 13 -98 -93 -120 -163 -214 -252 -266 -252
-62 0 -26 90 161 395 60 99 112 183 114 187 2 4 -33 7 -78 5 l-82 -2 -106
-175 c-157 -260 -261 -390 -325 -406 -34 -8 -46 2 -46 37 0 45 15 74 164 317
75 123 136 225 136 227 0 2 -36 4 -79 3 l-80 0 -99 -167z"/>
<path d="M732 551 c-27 -32 -60 -80 -73 -107 -27 -57 -38 -156 -19 -179 16
-20 50 -19 50 1 0 11 -6 14 -20 9 -41 -13 -38 80 5 166 25 48 99 141 119 148
5 2 -11 -20 -36 -49 -25 -29 -58 -74 -73 -101 -29 -54 -44 -142 -26 -153 7 -5
11 4 11 26 0 18 9 51 19 73 21 45 91 115 115 115 30 0 36 32 13 72 -12 21 -25
38 -29 38 -4 0 -29 -26 -56 -59z"/>
<path d="M783 479 c-9 -9 -5 -22 18 -55 38 -55 47 -97 25 -115 -9 -8 -23 -20
-32 -28 -9 -8 -24 -11 -39 -7 -21 5 -25 3 -25 -15 0 -15 -5 -19 -15 -15 -23 8
-18 -12 10 -39 15 -16 36 -25 55 -25 93 0 145 89 116 198 l-13 53 28 -6 c34
-8 65 1 72 19 4 10 -6 12 -42 8 -33 -3 -58 1 -80 13 -18 9 -31 13 -29 8 44
-89 50 -109 45 -151 -6 -58 -40 -92 -93 -97 -21 -1 -30 -1 -19 2 68 14 105 51
105 105 0 70 -61 173 -87 147z"/>
<path d="M1958 463 c-30 -34 -48 -83 -48 -128 0 -71 20 -96 95 -117 26 -7 25
-7 -9 -3 -48 5 -92 45 -99 88 -6 43 10 106 35 141 20 27 20 29 2 21 -55 -23
-95 -29 -124 -18 -35 13 -40 1 -8 -21 15 -11 33 -14 55 -10 l32 6 -9 -33 c-26
-89 -1 -172 59 -204 43 -22 78 -19 106 10 25 24 35 52 14 40 -6 -4 -13 2 -16
14 -4 16 -11 19 -28 15 -32 -8 -75 34 -75 73 0 16 14 50 31 76 28 42 31 67 10
67 -4 0 -15 -8 -23 -17z"/>
</g>
</svg>
