<svg version="1.1" id="Layer_1" xmlns="http://www.w3.org/2000/svg" xmlns:xlink="http://www.w3.org/1999/xlink" x="0px" y="0px"
	 width="100%" viewBox="0 0 832 240" enable-background="new 0 0 832 240" xml:space="preserve">
<path fill="#000000" opacity="1.000000" stroke="none" 
	d="
M180.827576,208.204895 
	C176.446152,202.621262 176.722565,194.696259 181.430984,190.403427 
	C183.547272,188.473938 184.540634,186.611847 182.253433,184.615219 
	C179.990494,182.639771 178.542725,184.978302 177.505020,186.510406 
	C169.062103,198.976044 157.302048,207.552567 144.639465,215.194946 
	C141.340881,217.185745 138.672714,217.201126 135.424393,215.300186 
	C122.493431,207.732986 110.856216,198.729431 102.019325,186.433334 
	C101.068748,185.110672 100.241798,182.499588 97.918457,184.279297 
	C95.762932,185.930450 97.015686,187.557953 98.523392,189.275711 
	C104.707191,196.321060 103.255829,204.426559 95.006897,209.300797 
	C92.497261,210.783737 92.584114,212.852417 92.816528,215.329239 
	C93.354652,221.063995 92.143852,226.300690 87.449379,230.180649 
	C82.310036,234.428268 75.879677,233.966446 71.372864,229.079651 
	C70.698044,228.347946 70.161652,227.426971 69.364929,226.878952 
	C62.501190,222.157883 61.326206,219.741837 63.603855,211.841675 
	C64.773331,207.785294 65.182762,204.600861 61.182854,201.869370 
	C59.443920,200.681885 58.236610,198.496109 58.331200,196.236862 
	C58.487865,192.494949 59.730335,188.651703 56.109749,185.668747 
	C55.757366,185.378418 55.946732,183.956024 56.327709,183.327835 
	C58.638298,179.518051 57.487171,176.360168 54.569496,173.621948 
	C57.367943,167.947388 61.215179,164.550842 67.810234,165.951187 
	C68.126137,166.018265 68.493401,166.001053 68.803902,165.910477 
	C70.904877,165.297745 74.150642,165.535049 73.354454,162.084290 
	C72.691971,159.213013 69.957260,159.831726 67.906937,160.433517 
	C64.207214,161.519440 60.774921,163.228027 57.866409,165.843323 
	C56.516674,167.056976 55.216476,168.357330 53.053654,168.551605 
	C51.150478,166.047058 52.613487,163.393311 52.702770,160.878723 
	C52.909229,155.063873 51.769749,153.709152 45.933655,153.612701 
	C42.555115,153.556854 42.446331,150.794861 42.946339,149.028320 
	C45.097656,141.427658 40.987022,135.927887 37.221088,130.299362 
	C34.217381,125.810051 35.643196,121.218376 37.088017,116.913589 
	C37.996071,114.208099 39.438251,111.964508 36.472095,109.955757 
	C33.398876,107.874496 30.199865,105.908005 26.357920,108.380440 
	C22.371056,110.946121 21.315969,115.014229 23.369761,120.098694 
	C25.560007,120.526848 25.922522,118.362617 27.132664,117.409554 
	C29.335495,115.674660 31.132469,115.705818 32.022953,118.693970 
	C32.922123,121.711288 30.328577,126.473335 27.127344,127.703949 
	C23.655346,129.038666 21.194807,127.401711 19.654562,124.506325 
	C14.881660,115.534164 17.269003,100.838020 32.282684,99.836319 
	C35.934250,99.592682 39.673553,99.500145 43.011246,101.436935 
	C45.466820,102.861847 47.360607,102.305145 49.196342,100.308640 
	C50.427078,98.970100 51.819473,97.736893 53.297482,96.676773 
	C58.755241,92.762131 59.486454,93.063950 61.007137,99.484100 
	C61.193027,100.268906 61.583225,101.649277 61.911621,101.659134 
	C66.368515,101.793045 65.722450,107.768883 69.871216,108.419853 
	C71.567764,108.686050 71.034370,110.924393 71.298965,112.341331 
	C72.150925,116.903656 73.161942,121.310081 78.959969,121.970329 
	C86.997719,122.885635 92.980042,120.183968 95.138443,114.361275 
	C99.312149,103.101906 107.397133,95.541267 117.785271,90.145180 
	C119.418854,89.296616 121.165657,88.670364 122.325111,87.165581 
	C124.465622,84.387550 125.523018,81.609573 122.043823,79.002235 
	C121.779762,78.804337 121.565170,78.539238 121.333145,78.299973 
	C115.725853,72.517662 115.748970,72.538963 110.437309,78.237007 
	C106.172684,82.811859 100.810410,85.144173 94.676933,86.140274 
	C87.549232,87.297844 83.534668,81.959274 78.748161,78.541534 
	C76.988647,77.285179 75.452370,75.371979 73.548805,74.053032 
	C70.878517,72.202820 69.028854,69.698936 67.487717,66.871010 
	C66.273933,64.643776 66.747192,60.877392 63.453735,60.515465 
	C59.050694,60.031597 54.533150,59.788322 50.537521,62.861446 
	C48.312531,64.572731 46.602806,67.499619 42.904991,66.795525 
	C41.560570,66.539536 41.288040,68.136589 41.104053,69.335609 
	C40.859749,70.927727 41.685699,72.632874 40.452156,74.437195 
	C37.775169,73.365379 36.092636,71.432320 35.746490,68.649376 
	C35.213932,64.367752 34.368881,60.720261 28.447624,62.844582 
	C31.929348,53.435577 46.865032,47.371479 55.962013,51.168800 
	C57.802444,51.937046 59.651615,52.781715 61.305935,53.878880 
	C65.155006,56.431633 68.558258,56.244411 72.256256,53.322083 
	C76.791016,49.738514 77.925110,50.306419 79.106346,56.014225 
	C79.351341,57.198048 79.576973,58.823418 80.882660,58.608189 
	C84.965828,57.935104 87.705872,60.894356 91.124519,61.948624 
	C95.113701,63.178829 98.948700,63.265175 102.689041,61.060921 
	C105.987289,59.117195 109.383965,57.341293 112.711632,55.446423 
	C115.159538,54.052517 118.348961,52.782982 117.650482,49.342529 
	C116.829178,45.297043 115.425148,40.373962 111.032173,39.599277 
	C106.385910,38.779930 105.349297,36.181530 104.748413,32.642597 
	C104.258720,29.758539 106.160927,27.647472 108.366409,26.603233 
	C111.638992,25.053743 115.137085,25.011919 117.967407,28.023092 
	C118.289902,28.366194 118.751007,28.579006 119.443306,29.055653 
	C121.208260,25.729187 123.528755,24.040598 127.537018,25.455126 
	C129.986954,26.319715 131.406723,24.110956 132.487228,22.153280 
	C134.197098,19.055302 135.973511,15.742026 140.035736,15.845742 
	C143.986435,15.946610 145.929443,19.021587 147.557846,22.256008 
	C148.933044,24.987465 150.647873,26.935375 154.240799,25.228905 
	C157.293304,23.779102 158.968475,26.871212 161.163162,27.970842 
	C167.462036,24.649134 170.919846,24.831724 174.146866,28.595703 
	C177.152344,32.101234 175.439819,38.376644 170.868347,39.062477 
	C165.061340,39.933670 163.998413,44.592125 162.722794,48.621094 
	C161.457199,52.618462 165.445343,54.314342 168.122772,56.085747 
	C171.309143,58.193878 174.736511,59.956261 178.139328,61.713829 
	C181.991989,63.703758 185.873245,62.989948 189.746094,61.563129 
	C192.555786,60.527996 194.828781,58.111671 198.533371,59.441326 
	C200.491669,60.144207 201.256027,57.502743 201.547562,55.655407 
	C202.309875,50.824566 203.634308,50.234001 207.499237,53.165913 
	C208.678772,54.060684 209.718597,55.139603 210.829483,55.582878 
	C221.805573,55.829861 231.636612,47.958103 243.257248,52.273029 
	C252.529449,55.715935 256.918060,62.778774 260.044281,71.291679 
	C258.986328,72.562859 257.794189,71.878571 256.875824,71.361145 
	C252.455475,68.870583 247.836227,67.007912 243.041000,65.281815 
	C239.341492,63.950130 237.003418,63.258877 234.766861,66.911736 
	C234.265686,67.730278 233.417084,68.404694 231.792725,68.208008 
	C230.479263,63.108158 227.450378,59.893368 221.401337,60.166309 
	C217.973175,60.320999 215.627182,61.300526 214.468414,64.614708 
	C212.965347,68.913513 210.017807,71.981972 206.123535,74.195328 
	C202.540939,76.231544 199.845688,79.453735 196.755569,82.020676 
	C190.046005,87.594231 183.683899,86.548874 176.859528,83.666977 
	C173.287674,82.158607 170.542511,79.369827 167.966080,76.499977 
	C165.437683,73.683617 163.051880,73.199379 160.746124,76.770035 
	C160.209976,77.600327 159.457794,78.293076 158.791702,79.037201 
	C154.844177,83.447212 155.417816,86.921173 160.727966,89.692329 
	C171.738174,95.438103 180.114456,103.547859 184.865555,115.264008 
	C187.321503,121.320366 192.989014,123.894073 199.981567,122.802635 
	C205.232254,121.983093 207.477890,119.187469 208.526779,112.133232 
	C208.648224,111.316353 208.688629,110.487434 208.720032,110.155846 
	C214.056168,105.864815 220.201889,102.794525 219.652725,94.606339 
	C223.858063,95.366508 226.974197,97.375519 229.221741,100.183479 
	C231.728943,103.315788 233.748260,103.922455 237.583878,102.030006 
	C246.988739,97.389793 263.816864,102.476128 262.117981,118.953239 
	C261.816193,121.880516 260.854187,124.505447 258.881958,126.634666 
	C256.681671,129.010101 253.983704,129.533081 251.262329,127.574646 
	C248.481461,125.573410 246.913742,122.700172 247.953415,119.325424 
	C248.852112,116.408287 250.930084,117.564262 252.740677,118.735420 
	C253.947906,119.516319 255.165573,120.876091 256.724213,119.505524 
	C257.994751,118.388298 257.865540,116.760689 257.676483,115.284935 
	C257.111786,110.876915 254.366135,108.219406 250.139114,107.888489 
	C246.054855,107.568741 242.789337,109.669815 240.747635,113.341103 
	C240.216019,114.296997 240.643906,115.187195 241.037704,116.164055 
	C243.525330,122.334892 245.068863,127.983536 240.116898,134.380539 
	C237.255905,138.076447 234.029388,143.017044 236.716660,149.099365 
	C237.786209,151.520187 237.079803,155.282730 232.000732,153.962906 
	C228.804779,153.132446 227.179337,155.270218 227.078735,158.587112 
	C226.974854,162.012405 227.649033,165.499786 226.573990,169.149414 
	C223.892242,168.840912 222.216873,167.172150 220.522705,165.699448 
	C217.541931,163.108307 214.001526,161.711716 210.321106,160.596069 
	C208.353882,159.999725 206.587463,160.392853 205.847610,162.567703 
	C204.971558,165.142899 207.200729,165.588821 208.752899,166.384354 
	C209.318298,166.674164 210.083221,166.848969 210.693420,166.735077 
	C217.290405,165.503708 221.663620,168.406372 224.607117,174.588562 
	C221.572311,177.289780 220.316177,180.674438 223.465088,184.574844 
	C223.724731,184.896469 223.815811,185.821289 223.607559,185.984756 
	C219.125046,189.503510 221.369293,194.456772 220.751404,198.797852 
	C220.619171,199.726974 220.113251,200.950623 219.386642,201.392303 
	C213.661362,204.872452 215.107574,209.726669 216.272385,214.868317 
	C217.999924,222.493973 217.387054,223.285400 210.667084,227.624985 
	C207.802094,229.475128 206.077286,232.863770 202.131439,233.318283 
	C192.986206,234.371674 185.933380,227.651230 187.050568,217.461624 
	C187.650818,211.986710 186.383896,209.327942 180.827576,208.204895 
M150.148117,93.151848 
	C157.897797,94.759331 163.500534,98.984726 167.800842,105.782249 
	C170.672363,110.321281 172.141815,114.221764 169.272156,119.094063 
	C167.424713,122.230782 167.557800,125.913971 170.705704,127.477203 
	C177.528214,130.865219 178.780487,138.109009 182.909210,143.305664 
	C184.346344,145.114517 183.945084,147.379791 183.702087,149.570892 
	C181.172424,172.381607 169.465454,189.534943 151.211609,202.759445 
	C140.282440,210.677399 139.015381,210.619843 128.265396,202.476288 
	C124.541824,199.655563 120.920059,196.494385 116.323883,194.558289 
	C115.997139,196.760666 117.090408,197.878845 118.180618,198.821716 
	C123.854317,203.728516 129.847351,208.175079 136.535583,211.663300 
	C139.066910,212.983505 141.064728,212.620880 143.506607,211.295929 
	C149.245422,208.182114 154.631348,204.603180 159.602432,200.398193 
	C175.828491,186.672729 185.877319,169.703568 186.946182,148.053894 
	C187.162155,143.679520 187.323563,139.499222 182.863556,136.567413 
	C180.353790,134.917618 180.449005,131.994812 181.653732,129.311478 
	C183.168457,125.937714 182.931229,122.542122 181.989746,119.077400 
	C177.488571,102.512787 162.659775,90.990723 142.698395,88.592583 
	C127.697876,86.790443 108.007553,97.124405 101.061905,110.444443 
	C99.212616,113.990921 98.665604,117.111038 99.741432,121.174889 
	C102.505867,108.837143 110.956451,102.711716 120.148010,97.159164 
	C123.733490,94.993210 126.638184,93.750298 130.287033,97.398270 
	C133.202225,100.312759 137.410812,99.813957 139.322632,96.315506 
	C141.917389,91.567352 145.228516,91.693192 150.148117,93.151848 
M96.668747,156.528625 
	C96.373924,154.724808 95.811378,152.916931 95.838715,151.118011 
	C95.900032,147.081787 94.678284,142.886185 98.129066,139.310883 
	C102.439331,134.845078 102.393387,130.335434 98.535927,124.713310 
	C97.513382,126.326912 98.141403,127.947365 98.491684,129.488464 
	C99.222870,132.705292 98.575615,135.502869 96.026985,137.611115 
	C92.878319,140.215714 91.933304,143.547821 92.341232,147.420303 
	C92.654053,150.389893 92.774300,153.409912 93.421799,156.308868 
	C96.150421,168.525421 100.057358,180.185272 110.130302,188.689362 
	C104.678894,178.665283 99.138031,168.694122 96.668747,156.528625 
M69.465805,217.485626 
	C69.621437,219.369629 70.485718,220.686890 72.494774,220.773331 
	C76.514778,220.946259 81.046272,221.248642 83.152695,217.189636 
	C85.109283,213.419373 82.047432,210.282364 79.755669,207.476990 
	C77.709290,204.971954 75.384323,205.372482 73.452423,207.688919 
	C71.281700,210.291733 70.192825,213.437134 69.465805,217.485626 
M204.287170,221.787735 
	C206.198837,221.909668 208.542435,222.853790 209.458130,220.304947 
	C210.969528,216.097931 208.965271,212.559311 206.691391,209.218918 
	C205.668457,207.716202 204.397049,205.908508 202.347702,206.560806 
	C198.814346,207.685455 197.525162,210.967133 196.580261,214.131012 
	C195.451645,217.910049 197.732101,220.253815 204.287170,221.787735 
M201.855133,160.516357 
	C200.403183,158.519104 199.144730,156.333984 197.442017,154.580170 
	C195.900681,152.992569 194.501755,150.260986 192.027771,150.787125 
	C189.061188,151.418030 190.568558,154.727448 189.738632,156.732498 
	C189.309204,157.769928 189.275925,158.981979 189.128830,160.123535 
	C188.763138,162.961548 189.655563,165.140213 192.723831,165.576889 
	C196.300262,166.085892 199.969437,166.365067 202.965286,163.763474 
	C203.265106,163.503113 202.498978,162.015289 201.855133,160.516357 
M77.636742,163.753403 
	C81.664848,165.342651 86.035805,166.077484 89.411133,163.174622 
	C92.544670,160.479706 89.904320,156.603363 89.578415,153.279144 
	C89.222755,149.651306 86.852608,149.745102 84.669075,151.482071 
	C80.875839,154.499512 77.952690,158.233566 77.636742,163.753403 
M162.779938,140.683411 
	C161.908676,142.163239 161.037399,143.643051 159.857559,145.646973 
	C168.664093,141.539932 172.445831,133.522888 161.939758,122.334450 
	C162.004166,128.777740 166.495026,134.290817 162.779938,140.683411 
M145.003357,143.463135 
	C142.143005,148.484161 139.282654,153.505188 136.422302,158.526215 
	C136.861252,158.764969 137.300217,159.003738 137.739166,159.242493 
	C144.289291,151.475708 148.455490,142.247910 153.207138,133.367996 
	C149.288498,135.542313 147.445099,139.277817 145.003357,143.463135 
M155.659744,168.850388 
	C159.353424,163.054840 159.861923,155.811096 156.111740,151.500656 
	C155.943604,157.704132 151.046677,162.672836 155.659744,168.850388 
M112.166481,168.511429 
	C113.982803,167.175446 114.233040,165.575012 112.622192,164.003693 
	C111.751060,163.153946 110.682961,163.748322 110.112129,164.598404 
	C108.854126,166.471817 109.039711,167.985001 112.166481,168.511429 
z"/>
<path fill="#000000" opacity="1.000000" stroke="none" 
	d="
M427.113434,187.437286 
	C428.522186,178.805725 431.400421,170.929153 432.193665,162.590240 
	C433.041504,153.677536 430.395966,150.667557 421.566193,151.207916 
	C414.753540,151.624832 413.861786,151.353180 408.562683,147.146774 
	C405.841431,149.665695 404.482239,153.110153 402.671051,156.219101 
	C390.738159,176.702347 376.645172,195.362076 357.268707,209.458084 
	C341.569641,220.878845 324.330627,227.469467 304.504669,225.334152 
	C298.206146,224.655777 292.531647,222.444534 287.710571,218.324600 
	C281.576935,213.082932 279.787628,203.986725 283.346252,196.911896 
	C286.158600,191.320709 292.093994,188.739914 297.541534,190.739609 
	C303.271942,192.843124 306.300323,198.758072 304.777527,204.872803 
	C302.240479,215.060349 306.908051,219.799057 317.862885,218.494476 
	C331.597443,216.858856 342.033752,209.513046 350.953674,199.620316 
	C365.351868,183.651825 375.759003,165.001724 386.195374,146.395370 
	C401.103485,119.816582 417.320648,94.282410 442.028839,75.416740 
	C442.414185,75.122513 442.685486,74.678986 443.439392,73.810570 
	C437.831177,70.311012 431.641907,69.216095 425.516724,68.535660 
	C415.924316,67.470078 406.275970,66.941391 396.622559,68.333893 
	C388.782196,69.464874 388.584076,71.594269 391.021667,77.187500 
	C396.147949,88.950165 395.781921,101.339172 392.073730,113.399910 
	C383.808258,140.283127 366.790466,158.782196 339.198181,166.459442 
	C329.427704,169.177948 319.651947,168.890060 310.637634,163.718735 
	C301.349243,158.390137 297.008728,146.421280 299.115997,133.894821 
	C300.760712,124.117874 304.892944,115.505470 310.861938,107.722305 
	C323.418030,91.350037 339.360596,79.411263 358.336121,71.360626 
	C360.996674,70.231834 365.848816,70.103348 365.266968,66.262596 
	C364.690002,62.454418 359.872345,62.873386 356.809113,62.533379 
	C343.946136,61.105629 332.029694,64.337685 321.005005,70.958199 
	C305.947021,80.000809 294.752960,92.359520 288.624207,109.015320 
	C288.336853,109.796272 288.086273,110.611824 287.662079,111.317146 
	C286.652069,112.996529 286.552155,116.220734 283.430115,114.897865 
	C280.935394,113.840805 280.721436,111.382782 281.391876,108.873505 
	C282.430756,104.985214 283.969635,101.295609 285.877930,97.777496 
	C298.873260,73.819313 318.375214,58.903278 345.754517,55.320915 
	C355.312683,54.070309 365.190125,54.689751 373.577240,59.238808 
	C381.410950,63.487728 388.816040,62.348503 396.645660,61.415657 
	C413.910675,59.358635 430.900543,60.695976 447.439270,66.107468 
	C451.099457,67.305092 454.052612,67.484009 457.172729,65.070801 
	C458.725555,63.869766 460.649384,63.117508 462.466400,62.297459 
	C464.354492,61.445351 466.154541,61.777107 467.342865,63.521709 
	C468.706848,65.524139 466.852997,66.521736 465.706635,67.604362 
	C464.403320,68.835243 462.973846,69.932518 461.832703,70.891632 
	C462.005219,72.969749 463.302948,73.579117 464.327728,74.368271 
	C483.812683,89.373192 485.624695,110.895142 468.807068,128.840607 
	C461.722534,136.400223 453.144043,141.705215 443.319305,145.008423 
	C441.481750,145.626251 439.382935,145.742218 437.894379,147.567200 
	C438.277832,148.126694 438.552795,148.757568 439.019073,149.174576 
	C450.107605,159.091339 452.051636,171.401337 448.640106,185.213989 
	C446.924316,192.160980 445.427582,199.162964 443.901825,206.155350 
	C443.549713,207.769012 443.297211,209.448227 443.322906,211.092209 
	C443.395630,215.750000 445.489838,217.191055 449.737335,215.437057 
	C454.118011,213.628067 457.615967,210.496613 461.069885,207.344299 
	C466.377045,202.500534 471.010315,197.036530 475.675720,191.594711 
	C477.029388,190.015717 478.537598,187.826385 481.043335,189.767731 
	C483.527222,191.692169 481.853973,193.828476 480.663330,195.460220 
	C473.357117,205.473419 465.244934,214.774109 454.550018,221.308914 
	C443.686646,227.946671 435.405670,225.464691 429.391388,214.158295 
	C424.912170,205.737839 425.263977,196.852829 427.113434,187.437286 
M374.989868,119.495506 
	C381.460876,107.441544 384.933746,94.755508 382.082520,81.065758 
	C380.363190,72.810593 377.980438,71.698639 370.094604,74.367004 
	C353.280029,80.056633 338.262329,88.876305 325.659943,101.350319 
	C315.688416,111.220299 308.192291,122.597870 306.493774,137.161499 
	C304.858337,151.184402 314.874115,160.916458 328.704041,158.224350 
	C333.817322,157.229019 338.659058,155.560059 343.145813,152.897156 
	C356.658234,144.877441 366.727814,133.548401 374.989868,119.495506 
M432.851135,140.582428 
	C447.701874,135.236298 455.602722,123.677910 459.579193,109.298187 
	C462.148132,100.008316 462.367828,90.466896 455.878693,82.139977 
	C452.361938,77.627228 451.173615,77.562782 447.569733,81.819405 
	C433.681122,98.223694 424.206573,117.349037 414.174316,136.127121 
	C413.890411,136.658539 413.907745,137.350861 413.632904,138.728806 
	C420.153198,138.030502 425.807983,141.261765 432.851135,140.582428 
z"/>
<path fill="#000000" opacity="1.000000" stroke="none" 
	d="
M580.292175,192.168243 
	C573.055725,201.984009 565.878174,211.381439 557.247681,219.549210 
	C556.161133,220.577560 555.062134,221.610779 553.864014,222.500427 
	C543.055664,230.526077 534.140442,227.562180 530.298340,214.693970 
	C530.110107,214.063324 529.924805,213.431763 529.856262,213.199997 
	C527.042236,215.671600 524.030396,218.137772 521.223267,220.818390 
	C514.601807,227.141602 508.968292,228.615356 503.417450,225.290207 
	C497.631439,221.824234 495.019775,214.034027 497.342316,206.258392 
	C498.239502,203.254761 499.517303,200.289093 501.087311,197.575516 
	C507.176422,187.050949 513.556946,176.694290 519.591553,166.139328 
	C521.246521,163.244507 523.079102,162.277451 526.379700,162.627045 
	C530.273315,163.039459 534.244080,162.723816 538.251099,162.723816 
	C539.055969,164.598038 537.485474,165.751144 536.680603,167.084351 
	C528.588013,180.489044 520.445251,193.863434 512.326416,207.252319 
	C510.417358,210.400665 508.648499,213.649002 508.363068,217.393707 
	C508.071503,221.219147 509.775085,222.408310 513.240051,220.695618 
	C518.617126,218.037796 522.300781,213.426880 525.931030,208.867859 
	C536.454468,195.652161 544.574219,180.879791 553.068176,166.364609 
	C554.708923,163.560837 556.378723,162.156219 559.754639,162.673584 
	C563.691589,163.276947 567.669861,162.571808 571.620361,162.101715 
	C572.993774,164.614304 571.032227,166.023621 570.110046,167.578873 
	C561.872192,181.471893 552.670044,194.794495 545.430542,209.276321 
	C544.317932,211.502045 543.351318,213.825638 542.585022,216.190781 
	C542.083740,217.738281 541.726746,219.565613 543.200867,220.868011 
	C544.782288,222.265213 546.388672,221.240097 547.822021,220.467514 
	C551.680786,218.387619 554.857910,215.448318 557.781921,212.221664 
	C564.397583,204.921127 569.969788,196.809586 575.893799,188.970047 
	C577.035217,187.459473 578.261902,185.041199 580.590759,186.550247 
	C582.797119,187.979965 581.468811,190.085373 580.292175,192.168243 
z"/>
<path fill="#000000" opacity="1.000000" stroke="none" 
	d="
M797.829834,198.890045 
	C802.123474,195.871140 805.329346,192.290543 808.270142,188.420837 
	C809.468140,186.844391 810.994690,184.888702 813.158447,186.751801 
	C815.103271,188.426285 813.351868,190.098694 812.319702,191.521515 
	C808.359070,196.981247 803.541138,201.533463 797.662903,204.890396 
	C795.487793,206.132538 793.080933,207.738693 790.684326,207.328598 
	C782.997253,206.013168 779.104004,210.961273 774.918701,215.880249 
	C772.109863,219.181519 768.862366,222.095581 764.943115,224.096725 
	C758.488953,227.392151 751.949463,228.636795 745.640076,223.915894 
	C739.098694,219.021439 736.358704,212.199036 737.177979,204.221634 
	C737.967285,196.536346 741.513611,189.923126 746.739563,184.279877 
	C754.645996,175.742065 763.947449,169.077667 774.520569,164.236694 
	C777.697815,162.781937 781.031433,161.740051 784.595703,161.538635 
	C794.146423,160.999023 798.944580,166.024811 797.836060,175.590027 
	C796.933655,183.376450 793.621216,190.255081 789.635925,196.862396 
	C788.696167,198.420471 787.718872,199.955887 786.560669,201.820953 
	C791.255554,204.077042 794.183167,200.703262 797.829834,198.890045 
M785.989929,179.215530 
	C786.444885,179.011703 786.881714,178.701019 787.357544,178.620682 
	C791.886047,177.855957 793.740601,175.452866 792.151733,170.907349 
	C790.729004,166.837173 787.552063,165.551987 782.835754,167.251312 
	C779.174744,168.570465 776.071777,170.840179 773.351135,173.554260 
	C765.283142,181.602524 758.607727,190.685364 753.624207,200.954163 
	C751.655884,205.009888 750.270264,209.275620 749.853760,213.808685 
	C749.297607,219.861832 751.971191,222.315338 757.800232,220.870712 
	C766.649048,218.677719 771.938782,211.943054 777.264771,205.303040 
	C777.920288,204.485764 778.125854,203.554611 777.642578,202.510544 
	C772.985413,192.448868 778.502686,185.796936 785.989929,179.215530 
z"/>
<path fill="#000000" opacity="1.000000" stroke="none" 
	d="
M677.915405,227.083191 
	C662.281738,226.628113 654.627502,216.144470 659.505432,201.853500 
	C662.574036,192.863159 667.623535,185.372925 678.096680,183.735596 
	C679.942139,183.447067 680.915588,182.053864 681.928894,180.760193 
	C688.962952,171.780334 697.307373,163.742325 700.912659,152.368042 
	C702.159058,148.435715 705.103760,145.171432 708.871277,143.044281 
	C710.669189,142.029190 712.693359,141.489868 714.474731,143.039810 
	C716.445496,144.754532 716.149414,146.915955 715.073914,148.969925 
	C712.568970,153.754013 708.843994,157.615936 705.024170,161.298294 
	C701.904480,164.305771 701.139526,167.691772 701.843933,171.703979 
	C702.945374,177.977615 705.425293,183.803558 707.683716,189.699310 
	C713.037170,203.675095 709.616638,213.713760 696.826294,221.539322 
	C691.152893,225.010513 684.871826,226.422256 677.915405,227.083191 
M680.123230,218.781570 
	C697.264648,207.307571 698.599976,192.207245 695.758362,172.118988 
	C693.226685,175.177460 690.863647,178.157501 688.363586,181.017792 
	C685.793701,183.957840 683.728333,186.738770 684.939758,191.204666 
	C685.714172,194.059570 683.537842,196.530853 681.228882,198.364517 
	C678.822998,200.275208 675.855530,200.869034 673.023499,201.820679 
	C666.435059,204.034546 662.810608,209.836914 664.588989,215.071136 
	C666.311707,220.141785 672.002869,221.828674 679.000549,219.340073 
	C679.156189,219.284729 679.299988,219.196350 680.123230,218.781570 
z"/>
<path fill="#000000" opacity="1.000000" stroke="none" 
	d="
M628.424927,157.493637 
	C630.347168,152.036758 632.748413,147.298782 637.182861,143.970963 
	C639.221985,142.440765 641.686646,141.147614 644.018433,143.168732 
	C646.357361,145.195999 645.377625,147.756195 644.136719,150.011047 
	C641.942261,153.998703 638.907104,157.375534 635.478760,160.279160 
	C631.193237,163.908768 630.442566,168.356934 631.836182,173.347260 
	C633.086792,177.825790 634.450256,182.306335 636.209290,186.603653 
	C644.353577,206.499710 635.650940,222.315048 614.211609,226.153687 
	C610.463440,226.824799 606.684143,227.473770 602.801697,226.790253 
	C592.690430,225.010132 586.810913,217.385468 587.826172,207.187408 
	C588.914734,196.252930 596.751404,186.877884 607.317871,183.809219 
	C608.244690,183.540070 609.393433,183.249207 609.937500,182.567871 
	C616.343872,174.544540 624.229797,167.609772 628.424927,157.493637 
M616.761414,213.266525 
	C627.495056,201.642059 628.146667,187.901978 625.420715,172.149551 
	C621.260925,177.207977 617.810852,181.383362 614.388794,185.581573 
	C613.711060,186.412979 613.860474,187.335800 614.025330,188.388687 
	C615.055664,194.966324 613.161072,198.117706 606.839722,200.515656 
	C604.516113,201.397110 602.024170,201.907822 599.815308,203.003571 
	C594.970886,205.406723 592.593750,211.278763 594.481689,215.543198 
	C596.404724,219.886871 601.424133,221.718399 606.836304,220.041702 
	C610.592285,218.878128 613.636475,216.627731 616.761414,213.266525 
z"/>
</svg>